<svg id="visual" viewBox="0 0 960 540" width="960" height="540"
     xmlns="http://www.w3.org/2000/svg" version="1.1">
    <rect x="0" y="0" width="960" height="540" fill="#ffffff"></rect>
    <path d="M0 352L22.8 353.2C45.7 354.3 91.3 356.7 137 361.8C182.7 367 228.3 375 274 372.3C319.7 369.7 365.3 356.3 411.2 359.7C457 363 503 383 548.8 379.8C594.7 376.7 640.3 350.3 686 347C731.7 343.7 777.3 363.3 823 365C868.7 366.7 914.3 350.3 937.2 342.2L960 334L960 541L937.2 541C914.3 541 868.7 541 823 541C777.3 541 731.7 541 686 541C640.3 541 594.7 541 548.8 541C503 541 457 541 411.2 541C365.3 541 319.7 541 274 541C228.3 541 182.7 541 137 541C91.3 541 45.7 541 22.8 541L0 541Z"
          fill="#f63511"></path>
    <path d="M0 431L22.8 427.8C45.7 424.7 91.3 418.3 137 412C182.7 405.7 228.3 399.3 274 399.7C319.7 400 365.3 407 411.2 401.8C457 396.7 503 379.3 548.8 369.8C594.7 360.3 640.3 358.7 686 364.2C731.7 369.7 777.3 382.3 823 385C868.7 387.7 914.3 380.3 937.2 376.7L960 373L960 541L937.2 541C914.3 541 868.7 541 823 541C777.3 541 731.7 541 686 541C640.3 541 594.7 541 548.8 541C503 541 457 541 411.2 541C365.3 541 319.7 541 274 541C228.3 541 182.7 541 137 541C91.3 541 45.7 541 22.8 541L0 541Z"
          fill="#fd6f48"></path>
    <path d="M0 454L22.8 450.7C45.7 447.3 91.3 440.7 137 440.2C182.7 439.7 228.3 445.3 274 443.2C319.7 441 365.3 431 411.2 430.5C457 430 503 439 548.8 442.7C594.7 446.3 640.3 444.7 686 438C731.7 431.3 777.3 419.7 823 415.2C868.7 410.7 914.3 413.3 937.2 414.7L960 416L960 541L937.2 541C914.3 541 868.7 541 823 541C777.3 541 731.7 541 686 541C640.3 541 594.7 541 548.8 541C503 541 457 541 411.2 541C365.3 541 319.7 541 274 541C228.3 541 182.7 541 137 541C91.3 541 45.7 541 22.8 541L0 541Z"
          fill="#ff9b7b"></path>
    <path d="M0 451L22.8 449.3C45.7 447.7 91.3 444.3 137 447.8C182.7 451.3 228.3 461.7 274 460.3C319.7 459 365.3 446 411.2 440C457 434 503 435 548.8 435.2C594.7 435.3 640.3 434.7 686 441C731.7 447.3 777.3 460.7 823 469.2C868.7 477.7 914.3 481.3 937.2 483.2L960 485L960 541L937.2 541C914.3 541 868.7 541 823 541C777.3 541 731.7 541 686 541C640.3 541 594.7 541 548.8 541C503 541 457 541 411.2 541C365.3 541 319.7 541 274 541C228.3 541 182.7 541 137 541C91.3 541 45.7 541 22.8 541L0 541Z"
          fill="#ffc4b0"></path>
    <path d="M0 495L22.8 496C45.7 497 91.3 499 137 498.5C182.7 498 228.3 495 274 495.3C319.7 495.7 365.3 499.3 411.2 499.7C457 500 503 497 548.8 492.7C594.7 488.3 640.3 482.7 686 481.5C731.7 480.3 777.3 483.7 823 486C868.7 488.3 914.3 489.7 937.2 490.3L960 491L960 541L937.2 541C914.3 541 868.7 541 823 541C777.3 541 731.7 541 686 541C640.3 541 594.7 541 548.8 541C503 541 457 541 411.2 541C365.3 541 319.7 541 274 541C228.3 541 182.7 541 137 541C91.3 541 45.7 541 22.8 541L0 541Z"
          fill="#f9ece8"></path>
</svg>